<?xml version="1.0" encoding="UTF-8"?>
<svg width="121px" height="31px" viewBox="0 0 121 31" version="1.1" xmlns="http://www.w3.org/2000/svg" xmlns:xlink="http://www.w3.org/1999/xlink">
    <!-- Generator: Sketch 49.3 (51167) - http://www.bohemiancoding.com/sketch -->
    <title>FORTSQUAD</title>
    <desc>Created with Sketch.</desc>
    <defs></defs>
    <g id="Page-1" stroke="none" stroke-width="1" fill="none" fill-rule="evenodd">
        <g id="FSQ---Discord-Homepage" transform="translate(-251.000000, -22.000000)" fill="#FFFFFF">
            <path d="M251.6325,47.8212684 C251.632467,47.8117944 251.597385,37.7346261 251.3525,23.6012751 C251.3525,23.6012751 255.9025,23.5662751 261.3275,23.4612751 C261.3275,23.4612751 261.2925,25.0712751 261.2925,28.1512751 C261.2925,28.1512751 259.5075,28.1162751 256.1125,28.2212751 C256.1125,28.2212751 256.1125,30.5312751 256.1475,35.0462751 C256.6375,35.0462751 258.2125,35.0812751 260.8025,34.9762751 C260.8025,34.9762751 260.8025,36.8662751 260.8375,39.5962751 C260.8375,39.5962751 259.2975,39.5262751 256.2175,39.5962751 L256.3575,47.7862751 C253.594594,47.7513016 251.635469,47.8211692 251.632503,47.821275 L251.6325,47.8212684 Z M251.6325,47.8212684 C251.6325,47.8212684 251.6325,47.8212684 251.6325,47.8212684 C251.6325,47.8212684 251.6325,47.8212684 251.6325,47.8212684 Z M268.8175,48.4512751 C263.7775,48.4512751 262.0975,44.1462751 262.0625,35.7462751 C262.0625,28.7112751 263.3925,23.1112751 268.8175,23.1112751 C274.3125,23.1112751 275.6075,28.2562751 275.6075,35.7112751 C275.5375,45.4062751 273.3675,48.4512751 268.8175,48.4512751 Z M268.8875,44.7412751 C269.9375,44.7412751 270.4275,43.1662751 270.4275,35.5362751 C270.4275,28.8512751 269.9375,26.9262751 268.8175,26.9262751 C267.5925,26.9262751 267.2425,29.2012751 267.2425,35.5012751 C267.2425,42.9212751 267.6625,44.7412751 268.8875,44.7412751 Z M285.4425,48.5562751 C285.4425,48.5562751 284.4975,44.9512751 282.8175,39.0362751 C282.5025,39.1062751 282.1525,39.1412751 281.8375,39.1762751 C281.8375,40.6462751 281.9075,43.4812751 281.9775,47.4012751 C281.9775,47.4012751 279.8775,47.4012751 277.0775,47.4362751 C277.0775,47.4362751 277.2175,38.3362751 277.1125,23.5662751 C278.8625,23.2512751 280.4025,23.0762751 281.7675,23.0762751 C287.2275,23.0762751 289.8175,26.0162751 289.8175,31.2312751 C289.8175,34.3462751 288.6975,36.3412751 286.8425,37.5662751 C287.1225,38.5112751 288.2775,42.0462751 290.3775,48.1712751 C290.3775,48.1712751 288.5575,48.3462751 285.4425,48.5562751 Z M281.8375,35.8862751 C283.5525,35.7812751 284.8475,34.6612751 284.8475,31.5812751 C284.8475,28.8862751 284.0425,27.1712751 282.1875,27.1712751 C282.0475,27.1712751 281.7325,27.2062751 281.7325,27.2062751 C281.7675,31.9312751 281.8375,35.8862751 281.8375,35.8862751 Z M290.1675,28.1162751 C290.1675,28.1162751 290.2025,26.8562751 290.1325,23.5662751 C290.1325,23.5662751 293.8075,23.6012751 302.1025,23.4612751 C302.1025,23.4612751 301.9975,25.1762751 302.0325,28.1162751 C302.0325,28.1162751 300.5975,28.0812751 298.4625,28.0812751 C298.4625,31.5462751 298.4625,37.4612751 298.6025,48.0312751 C298.6025,48.0312751 296.9925,47.9962751 293.8425,48.0662751 C293.8425,48.0662751 293.8775,40.2262751 293.7725,28.0812751 L290.1675,28.1162751 Z M309.0675,48.4162751 C304.0975,48.4162751 302.2425,45.3012751 302.8025,39.1762751 C302.8025,39.1762751 304.7275,39.2462751 307.7025,39.2812751 C307.3875,42.9562751 307.8775,44.6012751 309.1025,44.6012751 C309.9775,44.6012751 310.4325,43.9362751 310.4325,41.9062751 C310.4325,40.2962751 309.8375,39.1412751 306.9325,37.0762751 C303.7825,34.8362751 302.6975,32.5962751 302.6975,29.4462751 C302.6975,24.9312751 305.3225,23.0762751 309.1025,23.0762751 C313.7225,23.0762751 315.6825,26.2262751 315.0525,32.1412751 C315.0525,32.1412751 312.7075,31.9312751 310.2925,31.8612751 C310.7125,28.2562751 310.0825,26.8912751 309.0325,26.8912751 C308.0875,26.8912751 307.6675,27.9412751 307.6675,29.6912751 C307.6675,31.4062751 308.4375,32.5962751 311.0975,34.3812751 C314.3175,36.5512751 315.4375,38.4762751 315.4375,41.8012751 C315.4375,46.6662751 312.8125,48.4162751 309.0675,48.4162751 Z M326.1475,52.6512751 C325.2725,50.7612751 324.5375,49.2562751 324.1175,48.4162751 C323.7325,48.4862751 323.3475,48.5212751 322.9275,48.5212751 C318.4825,48.5212751 316.3125,44.4262751 316.3125,36.0262751 C316.3125,27.4162751 318.2375,23.2162751 322.9275,23.2162751 C327.8275,23.2162751 329.8575,26.2612751 329.8575,36.3762751 C329.8575,41.2062751 328.9825,44.4612751 327.4775,46.3862751 C328.9825,48.7312751 330.1725,50.3412751 330.1725,50.3412751 C327.094751,52.0550219 326.148882,52.650405 326.147502,52.6512742 L326.1475,52.6512751 Z M326.1475,52.6512742 C326.1475,52.6512742 326.1475,52.6512742 326.1475,52.6512742 Z M323.0675,44.9512751 C324.1525,44.9512751 324.6775,43.6912751 324.6775,36.1662751 C324.6775,28.4312751 324.1175,26.9612751 323.0675,26.9612751 C321.9125,26.9612751 321.4925,29.3062751 321.4925,36.1662751 C321.4925,43.1312751 321.9825,44.9512751 323.0675,44.9512751 Z M337.4875,48.3812751 C332.5875,48.3812751 330.9075,43.9712751 330.9075,34.9412751 C330.9075,31.1262751 331.1525,27.3812751 331.6425,23.9162751 C331.6425,23.9162751 333.0075,24.1612751 336.2275,24.5462751 C335.8075,28.4662751 335.5975,31.2662751 335.5975,33.8562751 C335.5975,41.5212751 336.4375,43.7262751 337.4525,43.7262751 C338.4675,43.7262751 339.0625,42.6412751 339.0625,35.6062751 C339.0625,31.8612751 338.7125,27.4862751 338.1525,23.3212751 C338.1525,23.3212751 339.9725,23.2862751 342.9475,22.9362751 C343.5775,26.9962751 344.0325,31.4762751 344.0325,35.3962751 C344.0325,44.5312751 342.2125,48.3812751 337.4875,48.3812751 Z M344.1725,47.3662751 C344.1725,47.3662751 345.6425,38.1262751 347.6025,23.4612751 C351.4175,23.2862751 354.3575,23.3212751 354.3575,23.3212751 C354.3575,23.3212751 356.0375,35.5362751 358.1725,48.4162751 C358.1725,48.4162751 356.2125,48.3462751 353.1675,48.4512751 C353.1675,48.4512751 353.0275,46.9112751 352.7125,43.6912751 C351.9075,43.6912751 350.7525,43.6562751 349.2125,43.6562751 L348.8975,47.4362751 C348.8975,47.4362751 347.4275,47.3662751 344.1725,47.3662751 Z M350.9275,27.3812751 C350.6825,29.4112751 350.1575,33.9612751 349.5975,39.7712751 C349.5975,39.7712751 350.5075,39.8062751 352.2925,39.7712751 C351.9775,36.5862751 351.5225,32.5612751 350.9275,27.3812751 Z M364.0175,44.4612751 C365.8025,44.6012751 366.8525,43.7612751 366.8525,35.9562751 C366.8525,29.4112751 365.9425,27.0662751 363.8075,27.3812751 C363.8425,35.8162751 364.0175,44.4612751 364.0175,44.4612751 Z M359.1175,48.0312751 C359.1875,35.5712751 359.1175,23.6362751 359.1175,23.6362751 C360.4475,23.3912751 361.6375,23.2862751 362.7225,23.2862751 C369.4775,23.2862751 371.9625,27.3812751 371.9625,36.2712751 C371.9625,45.1962751 368.8825,48.3462751 362.8275,48.3462751 C361.7075,48.3462751 360.4475,48.2412751 359.1175,48.0312751 Z" id="FORTSQUAD"></path>
        </g>
    </g>
</svg>